<mxfile host="app.diagrams.net" modified="2023-04-04T02:54:12.304Z" agent="Mozilla/5.0 (Macintosh; Intel Mac OS X 10.15; rv:109.0) Gecko/20100101 Firefox/111.0" version="21.1.4" etag="Hg-7NbM_Aw1I1BtGW9v3" type="github">
  <diagram name="Page-1" id="qh9Gy3GK5dmrxc_Ww8kk">
    <mxGraphModel>
      <root>
        <mxCell id="0" />
        <mxCell id="1" parent="0" />
      </root>
    </mxGraphModel>
  </diagram>
</mxfile>
